{
 "asset": {
  "generator": "Khronos glTF Blender I/O v0.9.36",
  "version": "2.0",
  "extras": {
   "graftedFrom": [
    "actors/character_tavernkeeper.gltf",
    "adventurers/Rogue.glb"
   ],
   "legScale": 0.72,
   "legGirth": 1.25,
   "lift": 0.2798,
   "tool": "docs/product/art-direction/tools/graft_legs.py"
  }
 },
 "scene": 0,
 "scenes": [
  {
   "name": "Scene",
   "nodes": [
    5
   ]
  }
 ],
 "nodes": [
  {
   "mesh": 0,
   "name": "character_tavernkeeperArmLeft",
   "translation": [
    0.20404469966888428,
    0.6335563659667969,
    0
   ]
  },
  {
   "mesh": 1,
   "name": "character_tavernkeeperArmRight",
   "translation": [
    -0.20404481887817383,
    0.6335563659667969,
    0
   ]
  },
  {
   "mesh": 2,
   "name": "character_tavernkeeperHead",
   "translation": [
    0,
    0.704538106918335,
    0
   ]
  },
  {
   "children": [
    0,
    1,
    2
   ],
   "mesh": 3,
   "name": "character_tavernkeeper",
   "translation": [
    0,
    0.2798,
    0
   ]
  },
  {
   "name": "character_tavernkeeperLegs",
   "mesh": 4
  },
  {
   "name": "character_tavernkeeper_full",
   "children": [
    3,
    4
   ]
  }
 ],
 "materials": [
  {
   "name": "BrownDarkSkin",
   "pbrMetallicRoughness": {
    "baseColorFactor": [
     0.32694560289382935,
     0.10152623057365417,
     0.05927089974284172,
     1
    ],
    "metallicFactor": 0,
    "roughnessFactor": 0.5
   }
  },
  {
   "name": "Yellow",
   "pbrMetallicRoughness": {
    "baseColorFactor": [
     1,
     0.5052202939987183,
     0.017695415765047073,
     1
    ],
    "metallicFactor": 0,
    "roughnessFactor": 0.4000000059604645
   }
  },
  {
   "name": "Black",
   "pbrMetallicRoughness": {
    "baseColorFactor": [
     0.019794002175331116,
     0.03207586705684662,
     0.037408243864774704,
     1
    ],
    "metallicFactor": 0,
    "roughnessFactor": 0.5
   }
  },
  {
   "doubleSided": true,
   "name": "Stone2",
   "pbrMetallicRoughness": {
    "baseColorFactor": [
     0.10092172026634216,
     0.11823292821645737,
     0.12790560722351074,
     1
    ],
    "metallicFactor": 0,
    "roughnessFactor": 0.5
   }
  },
  {
   "name": "White",
   "pbrMetallicRoughness": {
    "baseColorFactor": [
     0.799102783203125,
     0.799102783203125,
     0.799102783203125,
     1
    ],
    "metallicFactor": 0,
    "roughnessFactor": 0.4000000059604645
   }
  },
  {
   "doubleSided": true,
   "name": "WoodDark",
   "pbrMetallicRoughness": {
    "baseColorFactor": [
     0.15377813577651978,
     0.11656659096479416,
     0.10591226816177368,
     1
    ],
    "metallicFactor": 0,
    "roughnessFactor": 0.4000000059604645
   }
  },
  {
   "name": "Metal",
   "pbrMetallicRoughness": {
    "baseColorFactor": [
     0.40126433968544006,
     0.47849249839782715,
     0.5173344612121582,
     1
    ],
    "metallicFactor": 0.20000000298023224,
    "roughnessFactor": 0.30000001192092896
   }
  }
 ],
 "meshes": [
  {
   "name": "Cube.6077",
   "primitives": [
    {
     "attributes": {
      "POSITION": 0,
      "NORMAL": 1,
      "TEXCOORD_0": 2
     },
     "indices": 3,
     "material": 0
    },
    {
     "attributes": {
      "POSITION": 4,
      "NORMAL": 5,
      "TEXCOORD_0": 6
     },
     "indices": 7,
     "material": 1
    }
   ]
  },
  {
   "name": "Cube.6078",
   "primitives": [
    {
     "attributes": {
      "POSITION": 8,
      "NORMAL": 9,
      "TEXCOORD_0": 10
     },
     "indices": 11,
     "material": 0
    },
    {
     "attributes": {
      "POSITION": 12,
      "NORMAL": 13,
      "TEXCOORD_0": 14
     },
     "indices": 15,
     "material": 1
    }
   ]
  },
  {
   "name": "Cube.6079",
   "primitives": [
    {
     "attributes": {
      "POSITION": 16,
      "NORMAL": 17,
      "TEXCOORD_0": 18
     },
     "indices": 19,
     "material": 0
    },
    {
     "attributes": {
      "POSITION": 20,
      "NORMAL": 21,
      "TEXCOORD_0": 22
     },
     "indices": 23,
     "material": 2
    },
    {
     "attributes": {
      "POSITION": 24,
      "NORMAL": 25,
      "TEXCOORD_0": 26
     },
     "indices": 27,
     "material": 3
    }
   ]
  },
  {
   "name": "Cube.6076",
   "primitives": [
    {
     "attributes": {
      "POSITION": 28,
      "NORMAL": 29,
      "TEXCOORD_0": 30
     },
     "indices": 31,
     "material": 1
    },
    {
     "attributes": {
      "POSITION": 32,
      "NORMAL": 33,
      "TEXCOORD_0": 34
     },
     "indices": 35,
     "material": 4
    },
    {
     "attributes": {
      "POSITION": 36,
      "NORMAL": 37,
      "TEXCOORD_0": 38
     },
     "indices": 39,
     "material": 0
    },
    {
     "attributes": {
      "POSITION": 40,
      "NORMAL": 41,
      "TEXCOORD_0": 42
     },
     "indices": 43,
     "material": 2
    },
    {
     "attributes": {
      "POSITION": 44,
      "NORMAL": 45,
      "TEXCOORD_0": 46
     },
     "indices": 47,
     "material": 5
    },
    {
     "attributes": {
      "POSITION": 48,
      "NORMAL": 49,
      "TEXCOORD_0": 50
     },
     "indices": 51,
     "material": 6
    }
   ]
  },
  {
   "name": "character_tavernkeeperLegs",
   "primitives": [
    {
     "attributes": {
      "POSITION": 52,
      "NORMAL": 53
     },
     "indices": 54,
     "material": 5
    },
    {
     "attributes": {
      "POSITION": 55,
      "NORMAL": 56
     },
     "indices": 57,
     "material": 2
    }
   ]
  }
 ],
 "accessors": [
  {
   "bufferView": 0,
   "componentType": 5126,
   "count": 137,
   "max": [
    0.26490139961242676,
    -0.18965302407741547,
    0.09058663994073868
   ],
   "min": [
    0.10666269063949585,
    -0.47665560245513916,
    -0.0905865803360939
   ],
   "type": "VEC3"
  },
  {
   "bufferView": 1,
   "componentType": 5126,
   "count": 137,
   "type": "VEC3"
  },
  {
   "bufferView": 2,
   "componentType": 5126,
   "count": 137,
   "type": "VEC2"
  },
  {
   "bufferView": 3,
   "componentType": 5123,
   "count": 663,
   "type": "SCALAR"
  },
  {
   "bufferView": 4,
   "componentType": 5126,
   "count": 155,
   "max": [
    0.23024554550647736,
    0.09418356418609619,
    0.09855824708938599
   ],
   "min": [
    -0.11533478647470474,
    -0.2143862247467041,
    -0.0985582172870636
   ],
   "type": "VEC3"
  },
  {
   "bufferView": 5,
   "componentType": 5126,
   "count": 155,
   "type": "VEC3"
  },
  {
   "bufferView": 6,
   "componentType": 5126,
   "count": 155,
   "type": "VEC2"
  },
  {
   "bufferView": 7,
   "componentType": 5123,
   "count": 621,
   "type": "SCALAR"
  },
  {
   "bufferView": 8,
   "componentType": 5126,
   "count": 137,
   "max": [
    -0.10666269063949585,
    -0.18965302407741547,
    0.09058663994073868
   ],
   "min": [
    -0.26490139961242676,
    -0.47665560245513916,
    -0.0905865803360939
   ],
   "type": "VEC3"
  },
  {
   "bufferView": 9,
   "componentType": 5126,
   "count": 137,
   "type": "VEC3"
  },
  {
   "bufferView": 10,
   "componentType": 5126,
   "count": 137,
   "type": "VEC2"
  },
  {
   "bufferView": 11,
   "componentType": 5123,
   "count": 663,
   "type": "SCALAR"
  },
  {
   "bufferView": 12,
   "componentType": 5126,
   "count": 155,
   "max": [
    0.11533478647470474,
    0.09418356418609619,
    0.09855824708938599
   ],
   "min": [
    -0.23024554550647736,
    -0.2143862247467041,
    -0.0985582172870636
   ],
   "type": "VEC3"
  },
  {
   "bufferView": 13,
   "componentType": 5126,
   "count": 155,
   "type": "VEC3"
  },
  {
   "bufferView": 14,
   "componentType": 5126,
   "count": 155,
   "type": "VEC2"
  },
  {
   "bufferView": 15,
   "componentType": 5123,
   "count": 621,
   "type": "SCALAR"
  },
  {
   "bufferView": 16,
   "componentType": 5126,
   "count": 745,
   "max": [
    0.5877271294593811,
    1.0516853332519531,
    0.623619794845581
   ],
   "min": [
    -0.587727963924408,
    -2.384185791015625e-07,
    -0.49999961256980896
   ],
   "type": "VEC3"
  },
  {
   "bufferView": 17,
   "componentType": 5126,
   "count": 745,
   "type": "VEC3"
  },
  {
   "bufferView": 18,
   "componentType": 5126,
   "count": 745,
   "type": "VEC2"
  },
  {
   "bufferView": 19,
   "componentType": 5123,
   "count": 2718,
   "type": "SCALAR"
  },
  {
   "bufferView": 20,
   "componentType": 5126,
   "count": 108,
   "max": [
    0.3296673893928528,
    0.4932204484939575,
    0.468027800321579
   ],
   "min": [
    -0.32963401079177856,
    0.35582494735717773,
    0.36318591237068176
   ],
   "type": "VEC3"
  },
  {
   "bufferView": 21,
   "componentType": 5126,
   "count": 108,
   "type": "VEC3"
  },
  {
   "bufferView": 22,
   "componentType": 5126,
   "count": 108,
   "type": "VEC2"
  },
  {
   "bufferView": 23,
   "componentType": 5123,
   "count": 396,
   "type": "SCALAR"
  },
  {
   "bufferView": 24,
   "componentType": 5126,
   "count": 294,
   "max": [
    0.3989720046520233,
    0.6189892292022705,
    0.5333435535430908
   ],
   "min": [
    -0.3987184166908264,
    0.1429060697555542,
    0.2712535560131073
   ],
   "type": "VEC3"
  },
  {
   "bufferView": 25,
   "componentType": 5126,
   "count": 294,
   "type": "VEC3"
  },
  {
   "bufferView": 26,
   "componentType": 5126,
   "count": 294,
   "type": "VEC2"
  },
  {
   "bufferView": 27,
   "componentType": 5123,
   "count": 1170,
   "type": "SCALAR"
  },
  {
   "bufferView": 28,
   "componentType": 5126,
   "count": 237,
   "max": [
    0.3265542685985565,
    0.804757833480835,
    0.3134506642818451
   ],
   "min": [
    -0.32655423879623413,
    0.36284205317497253,
    -0.32530805468559265
   ],
   "type": "VEC3"
  },
  {
   "bufferView": 29,
   "componentType": 5126,
   "count": 237,
   "type": "VEC3"
  },
  {
   "bufferView": 30,
   "componentType": 5126,
   "count": 237,
   "type": "VEC2"
  },
  {
   "bufferView": 31,
   "componentType": 5123,
   "count": 798,
   "type": "SCALAR"
  },
  {
   "bufferView": 32,
   "componentType": 5126,
   "count": 32,
   "max": [
    0.22167333960533142,
    0.3157360553741455,
    0.39075833559036255
   ],
   "min": [
    0.025406531989574432,
    0.13077503442764282,
    0.2604895234107971
   ],
   "type": "VEC3"
  },
  {
   "bufferView": 33,
   "componentType": 5126,
   "count": 32,
   "type": "VEC3"
  },
  {
   "bufferView": 34,
   "componentType": 5126,
   "count": 32,
   "type": "VEC2"
  },
  {
   "bufferView": 35,
   "componentType": 5123,
   "count": 90,
   "type": "SCALAR"
  },
  {
   "bufferView": 36,
   "componentType": 5126,
   "count": 63,
   "max": [
    0.1690368950366974,
    0.7255613207817078,
    0.2777026295661926
   ],
   "min": [
    -0.169036865234375,
    0.479888379573822,
    -0.1749998778104782
   ],
   "type": "VEC3"
  },
  {
   "bufferView": 37,
   "componentType": 5126,
   "count": 63,
   "type": "VEC3"
  },
  {
   "bufferView": 38,
   "componentType": 5126,
   "count": 63,
   "type": "VEC2"
  },
  {
   "bufferView": 39,
   "componentType": 5123,
   "count": 234,
   "type": "SCALAR"
  },
  {
   "bufferView": 40,
   "componentType": 5126,
   "count": 229,
   "max": [
    0.3703586757183075,
    0.28621816635131836,
    0.35773903131484985
   ],
   "min": [
    -0.37035879492759705,
    -2.2351741790771484e-08,
    -0.37035879492759705
   ],
   "type": "VEC3"
  },
  {
   "bufferView": 41,
   "componentType": 5126,
   "count": 229,
   "type": "VEC3"
  },
  {
   "bufferView": 42,
   "componentType": 5126,
   "count": 229,
   "type": "VEC2"
  },
  {
   "bufferView": 43,
   "componentType": 5123,
   "count": 1074,
   "type": "SCALAR"
  },
  {
   "bufferView": 44,
   "componentType": 5126,
   "count": 328,
   "max": [
    0.3487403690814972,
    0.7208091020584106,
    0.34515026211738586
   ],
   "min": [
    -0.3487403690814972,
    0.07126329094171524,
    -0.35739460587501526
   ],
   "type": "VEC3"
  },
  {
   "bufferView": 45,
   "componentType": 5126,
   "count": 328,
   "type": "VEC3"
  },
  {
   "bufferView": 46,
   "componentType": 5126,
   "count": 328,
   "type": "VEC2"
  },
  {
   "bufferView": 47,
   "componentType": 5123,
   "count": 1278,
   "type": "SCALAR"
  },
  {
   "bufferView": 48,
   "componentType": 5126,
   "count": 86,
   "max": [
    0.16746404767036438,
    0.49818354845046997,
    0.3128647208213806
   ],
   "min": [
    -0.16493332386016846,
    0.4245309829711914,
    0.22932873666286469
   ],
   "type": "VEC3"
  },
  {
   "bufferView": 49,
   "componentType": 5126,
   "count": 86,
   "type": "VEC3"
  },
  {
   "bufferView": 50,
   "componentType": 5126,
   "count": 86,
   "type": "VEC2"
  },
  {
   "bufferView": 51,
   "componentType": 5123,
   "count": 228,
   "type": "SCALAR"
  },
  {
   "bufferView": 52,
   "componentType": 5126,
   "count": 2544,
   "type": "VEC3",
   "min": [
    -0.3637520596385002,
    0.09126516580581664,
    -0.15773314982652664
   ],
   "max": [
    0.36374490708112717,
    0.38101993560791014,
    0.18180225044488907
   ]
  },
  {
   "bufferView": 53,
   "componentType": 5126,
   "count": 2544,
   "type": "VEC3"
  },
  {
   "bufferView": 54,
   "componentType": 5125,
   "count": 2544,
   "type": "SCALAR"
  },
  {
   "bufferView": 55,
   "componentType": 5126,
   "count": 3036,
   "type": "VEC3",
   "min": [
    -0.360310822725296,
    -0.0014582226611673831,
    -0.15970412641763687
   ],
   "max": [
    0.360303670167923,
    0.11547211289405822,
    0.3507670760154724
   ]
  },
  {
   "bufferView": 56,
   "componentType": 5126,
   "count": 3036,
   "type": "VEC3"
  },
  {
   "bufferView": 57,
   "componentType": 5125,
   "count": 3036,
   "type": "SCALAR"
  }
 ],
 "bufferViews": [
  {
   "buffer": 0,
   "byteLength": 1644,
   "byteOffset": 0
  },
  {
   "buffer": 0,
   "byteLength": 1644,
   "byteOffset": 1644
  },
  {
   "buffer": 0,
   "byteLength": 1096,
   "byteOffset": 3288
  },
  {
   "buffer": 0,
   "byteLength": 1326,
   "byteOffset": 4384
  },
  {
   "buffer": 0,
   "byteLength": 1860,
   "byteOffset": 5712
  },
  {
   "buffer": 0,
   "byteLength": 1860,
   "byteOffset": 7572
  },
  {
   "buffer": 0,
   "byteLength": 1240,
   "byteOffset": 9432
  },
  {
   "buffer": 0,
   "byteLength": 1242,
   "byteOffset": 10672
  },
  {
   "buffer": 0,
   "byteLength": 1644,
   "byteOffset": 11916
  },
  {
   "buffer": 0,
   "byteLength": 1644,
   "byteOffset": 13560
  },
  {
   "buffer": 0,
   "byteLength": 1096,
   "byteOffset": 15204
  },
  {
   "buffer": 0,
   "byteLength": 1326,
   "byteOffset": 16300
  },
  {
   "buffer": 0,
   "byteLength": 1860,
   "byteOffset": 17628
  },
  {
   "buffer": 0,
   "byteLength": 1860,
   "byteOffset": 19488
  },
  {
   "buffer": 0,
   "byteLength": 1240,
   "byteOffset": 21348
  },
  {
   "buffer": 0,
   "byteLength": 1242,
   "byteOffset": 22588
  },
  {
   "buffer": 0,
   "byteLength": 8940,
   "byteOffset": 23832
  },
  {
   "buffer": 0,
   "byteLength": 8940,
   "byteOffset": 32772
  },
  {
   "buffer": 0,
   "byteLength": 5960,
   "byteOffset": 41712
  },
  {
   "buffer": 0,
   "byteLength": 5436,
   "byteOffset": 47672
  },
  {
   "buffer": 0,
   "byteLength": 1296,
   "byteOffset": 53108
  },
  {
   "buffer": 0,
   "byteLength": 1296,
   "byteOffset": 54404
  },
  {
   "buffer": 0,
   "byteLength": 864,
   "byteOffset": 55700
  },
  {
   "buffer": 0,
   "byteLength": 792,
   "byteOffset": 56564
  },
  {
   "buffer": 0,
   "byteLength": 3528,
   "byteOffset": 57356
  },
  {
   "buffer": 0,
   "byteLength": 3528,
   "byteOffset": 60884
  },
  {
   "buffer": 0,
   "byteLength": 2352,
   "byteOffset": 64412
  },
  {
   "buffer": 0,
   "byteLength": 2340,
   "byteOffset": 66764
  },
  {
   "buffer": 0,
   "byteLength": 2844,
   "byteOffset": 69104
  },
  {
   "buffer": 0,
   "byteLength": 2844,
   "byteOffset": 71948
  },
  {
   "buffer": 0,
   "byteLength": 1896,
   "byteOffset": 74792
  },
  {
   "buffer": 0,
   "byteLength": 1596,
   "byteOffset": 76688
  },
  {
   "buffer": 0,
   "byteLength": 384,
   "byteOffset": 78284
  },
  {
   "buffer": 0,
   "byteLength": 384,
   "byteOffset": 78668
  },
  {
   "buffer": 0,
   "byteLength": 256,
   "byteOffset": 79052
  },
  {
   "buffer": 0,
   "byteLength": 180,
   "byteOffset": 79308
  },
  {
   "buffer": 0,
   "byteLength": 756,
   "byteOffset": 79488
  },
  {
   "buffer": 0,
   "byteLength": 756,
   "byteOffset": 80244
  },
  {
   "buffer": 0,
   "byteLength": 504,
   "byteOffset": 81000
  },
  {
   "buffer": 0,
   "byteLength": 468,
   "byteOffset": 81504
  },
  {
   "buffer": 0,
   "byteLength": 2748,
   "byteOffset": 81972
  },
  {
   "buffer": 0,
   "byteLength": 2748,
   "byteOffset": 84720
  },
  {
   "buffer": 0,
   "byteLength": 1832,
   "byteOffset": 87468
  },
  {
   "buffer": 0,
   "byteLength": 2148,
   "byteOffset": 89300
  },
  {
   "buffer": 0,
   "byteLength": 3936,
   "byteOffset": 91448
  },
  {
   "buffer": 0,
   "byteLength": 3936,
   "byteOffset": 95384
  },
  {
   "buffer": 0,
   "byteLength": 2624,
   "byteOffset": 99320
  },
  {
   "buffer": 0,
   "byteLength": 2556,
   "byteOffset": 101944
  },
  {
   "buffer": 0,
   "byteLength": 1032,
   "byteOffset": 104500
  },
  {
   "buffer": 0,
   "byteLength": 1032,
   "byteOffset": 105532
  },
  {
   "buffer": 0,
   "byteLength": 688,
   "byteOffset": 106564
  },
  {
   "buffer": 0,
   "byteLength": 456,
   "byteOffset": 107252
  },
  {
   "buffer": 0,
   "byteOffset": 107708,
   "byteLength": 30528,
   "target": 34962
  },
  {
   "buffer": 0,
   "byteOffset": 138236,
   "byteLength": 30528,
   "target": 34962
  },
  {
   "buffer": 0,
   "byteOffset": 168764,
   "byteLength": 10176,
   "target": 34963
  },
  {
   "buffer": 0,
   "byteOffset": 178940,
   "byteLength": 36432,
   "target": 34962
  },
  {
   "buffer": 0,
   "byteOffset": 215372,
   "byteLength": 36432,
   "target": 34962
  },
  {
   "buffer": 0,
   "byteOffset": 251804,
   "byteLength": 12144,
   "target": 34963
  }
 ],
 "buffers": [
  {
   "byteLength": 263948,
   "uri": "character_tavernkeeper_full.bin"
  }
 ]
}