{
    "asset" : {
        "generator" : "Khronos glTF Blender I/O v3.4.50",
        "version" : "2.0"
    },
    "scene" : 0,
    "scenes" : [
        {
            "name" : "Scene",
            "nodes" : [
                1
            ]
        }
    ],
    "nodes" : [
        {
            "mesh" : 0,
            "name" : "arcademachine_A_joystick",
            "translation" : [
                -0.3999977111816406,
                0.9929265379905701,
                0.6499999761581421
            ]
        },
        {
            "children" : [
                0
            ],
            "mesh" : 1,
            "name" : "arcademachine_A"
        }
    ],
    "materials" : [
        {
            "name" : "KayKit_Texture_A",
            "pbrMetallicRoughness" : {
                "baseColorTexture" : {
                    "index" : 0
                },
                "metallicFactor" : 0,
                "roughnessFactor" : 0.5
            }
        },
        {
            "doubleSided" : true,
            "name" : "CustomTextureHere",
            "pbrMetallicRoughness" : {
                "baseColorTexture" : {
                    "index" : 1
                },
                "metallicFactor" : 0,
                "roughnessFactor" : 0.25
            }
        }
    ],
    "meshes" : [
        {
            "name" : "arcademachine_A_joystick",
            "primitives" : [
                {
                    "attributes" : {
                        "POSITION" : 0,
                        "TEXCOORD_0" : 1,
                        "NORMAL" : 2
                    },
                    "indices" : 3,
                    "material" : 0
                }
            ]
        },
        {
            "name" : "arcademachine_A",
            "primitives" : [
                {
                    "attributes" : {
                        "POSITION" : 4,
                        "TEXCOORD_0" : 5,
                        "NORMAL" : 6
                    },
                    "indices" : 7,
                    "material" : 0
                },
                {
                    "attributes" : {
                        "POSITION" : 8,
                        "TEXCOORD_0" : 9,
                        "NORMAL" : 10
                    },
                    "indices" : 11,
                    "material" : 1
                }
            ]
        }
    ],
    "textures" : [
        {
            "sampler" : 0,
            "source" : 0
        },
        {
            "sampler" : 0,
            "source" : 1
        }
    ],
    "images" : [
        {
            "mimeType" : "image/png",
            "name" : "kaykit_texture_A",
            "uri" : "kaykit_texture_A.png"
        },
        {
            "mimeType" : "image/png",
            "name" : "placeholder_texture",
            "uri" : "placeholder_texture.png"
        }
    ],
    "accessors" : [
        {
            "bufferView" : 0,
            "componentType" : 5126,
            "count" : 82,
            "max" : [
                0.12664344906806946,
                0.38745757937431335,
                0.12664349377155304
            ],
            "min" : [
                -0.12664341926574707,
                -0.05776491016149521,
                -0.12664341926574707
            ],
            "type" : "VEC3"
        },
        {
            "bufferView" : 1,
            "componentType" : 5126,
            "count" : 82,
            "type" : "VEC2"
        },
        {
            "bufferView" : 2,
            "componentType" : 5126,
            "count" : 82,
            "type" : "VEC3"
        },
        {
            "bufferView" : 3,
            "componentType" : 5123,
            "count" : 390,
            "type" : "SCALAR"
        },
        {
            "bufferView" : 4,
            "componentType" : 5126,
            "count" : 1225,
            "max" : [
                0.6782452464103699,
                2.5235490798950195,
                0.9972056746482849
            ],
            "min" : [
                -0.6782452464103699,
                0,
                -0.5419818162918091
            ],
            "type" : "VEC3"
        },
        {
            "bufferView" : 5,
            "componentType" : 5126,
            "count" : 1225,
            "type" : "VEC2"
        },
        {
            "bufferView" : 6,
            "componentType" : 5126,
            "count" : 1225,
            "type" : "VEC3"
        },
        {
            "bufferView" : 7,
            "componentType" : 5123,
            "count" : 2502,
            "type" : "SCALAR"
        },
        {
            "bufferView" : 8,
            "componentType" : 5126,
            "count" : 4,
            "max" : [
                0.4440149664878845,
                1.919346570968628,
                0.34965527057647705
            ],
            "min" : [
                -0.4440149664878845,
                1.0634126663208008,
                0.09287513792514801
            ],
            "type" : "VEC3"
        },
        {
            "bufferView" : 9,
            "componentType" : 5126,
            "count" : 4,
            "type" : "VEC2"
        },
        {
            "bufferView" : 10,
            "componentType" : 5126,
            "count" : 4,
            "type" : "VEC3"
        },
        {
            "bufferView" : 11,
            "componentType" : 5123,
            "count" : 6,
            "type" : "SCALAR"
        }
    ],
    "bufferViews" : [
        {
            "buffer" : 0,
            "byteLength" : 984,
            "byteOffset" : 0,
            "target" : 34962
        },
        {
            "buffer" : 0,
            "byteLength" : 656,
            "byteOffset" : 984,
            "target" : 34962
        },
        {
            "buffer" : 0,
            "byteLength" : 984,
            "byteOffset" : 1640,
            "target" : 34962
        },
        {
            "buffer" : 0,
            "byteLength" : 780,
            "byteOffset" : 2624,
            "target" : 34963
        },
        {
            "buffer" : 0,
            "byteLength" : 14700,
            "byteOffset" : 3404,
            "target" : 34962
        },
        {
            "buffer" : 0,
            "byteLength" : 9800,
            "byteOffset" : 18104,
            "target" : 34962
        },
        {
            "buffer" : 0,
            "byteLength" : 14700,
            "byteOffset" : 27904,
            "target" : 34962
        },
        {
            "buffer" : 0,
            "byteLength" : 5004,
            "byteOffset" : 42604,
            "target" : 34963
        },
        {
            "buffer" : 0,
            "byteLength" : 48,
            "byteOffset" : 47608,
            "target" : 34962
        },
        {
            "buffer" : 0,
            "byteLength" : 32,
            "byteOffset" : 47656,
            "target" : 34962
        },
        {
            "buffer" : 0,
            "byteLength" : 48,
            "byteOffset" : 47688,
            "target" : 34962
        },
        {
            "buffer" : 0,
            "byteLength" : 12,
            "byteOffset" : 47736,
            "target" : 34963
        }
    ],
    "samplers" : [
        {
            "magFilter" : 9729,
            "minFilter" : 9987
        }
    ],
    "buffers" : [
        {
            "byteLength" : 47748,
            "uri" : "arcademachine_A.bin"
        }
    ]
}
