{
    "asset" : {
        "generator" : "Khronos glTF Blender I/O v3.4.50",
        "version" : "2.0"
    },
    "scene" : 0,
    "scenes" : [
        {
            "name" : "Scene",
            "nodes" : [
                2
            ]
        }
    ],
    "nodes" : [
        {
            "mesh" : 0,
            "name" : "skateboard_A_axle_front",
            "translation" : [
                0,
                -0.12770052254199982,
                0.5168831944465637
            ]
        },
        {
            "mesh" : 1,
            "name" : "skateboard_A_axle_rear",
            "translation" : [
                0,
                -0.12770052254199982,
                -0.5168831944465637
            ]
        },
        {
            "children" : [
                0,
                1
            ],
            "mesh" : 2,
            "name" : "skateboard_A"
        }
    ],
    "materials" : [
        {
            "name" : "KayKit_Texture_A",
            "pbrMetallicRoughness" : {
                "baseColorTexture" : {
                    "index" : 0
                },
                "metallicFactor" : 0,
                "roughnessFactor" : 0.5
            }
        }
    ],
    "meshes" : [
        {
            "name" : "skateboard_A_axle_front",
            "primitives" : [
                {
                    "attributes" : {
                        "POSITION" : 0,
                        "TEXCOORD_0" : 1,
                        "NORMAL" : 2
                    },
                    "indices" : 3,
                    "material" : 0
                }
            ]
        },
        {
            "name" : "skateboard_A_axle_rear",
            "primitives" : [
                {
                    "attributes" : {
                        "POSITION" : 4,
                        "TEXCOORD_0" : 5,
                        "NORMAL" : 6
                    },
                    "indices" : 7,
                    "material" : 0
                }
            ]
        },
        {
            "name" : "skateboard_A",
            "primitives" : [
                {
                    "attributes" : {
                        "POSITION" : 8,
                        "TEXCOORD_0" : 9,
                        "NORMAL" : 10
                    },
                    "indices" : 11,
                    "material" : 0
                }
            ]
        }
    ],
    "textures" : [
        {
            "sampler" : 0,
            "source" : 0
        }
    ],
    "images" : [
        {
            "mimeType" : "image/png",
            "name" : "kaykit_texture_A",
            "uri" : "kaykit_texture_A.png"
        }
    ],
    "accessors" : [
        {
            "bufferView" : 0,
            "componentType" : 5126,
            "count" : 377,
            "max" : [
                0.2858058512210846,
                0.11357161402702332,
                0.09121444821357727
            ],
            "min" : [
                -0.28580594062805176,
                -0.09121464192867279,
                -0.14511476457118988
            ],
            "type" : "VEC3"
        },
        {
            "bufferView" : 1,
            "componentType" : 5126,
            "count" : 377,
            "type" : "VEC2"
        },
        {
            "bufferView" : 2,
            "componentType" : 5126,
            "count" : 377,
            "type" : "VEC3"
        },
        {
            "bufferView" : 3,
            "componentType" : 5123,
            "count" : 1056,
            "type" : "SCALAR"
        },
        {
            "bufferView" : 4,
            "componentType" : 5126,
            "count" : 377,
            "max" : [
                0.28580594062805176,
                0.11357161402702332,
                0.14511476457118988
            ],
            "min" : [
                -0.285805881023407,
                -0.09121464192867279,
                -0.09121450036764145
            ],
            "type" : "VEC3"
        },
        {
            "bufferView" : 5,
            "componentType" : 5126,
            "count" : 377,
            "type" : "VEC2"
        },
        {
            "bufferView" : 6,
            "componentType" : 5126,
            "count" : 377,
            "type" : "VEC3"
        },
        {
            "bufferView" : 7,
            "componentType" : 5123,
            "count" : 1056,
            "type" : "SCALAR"
        },
        {
            "bufferView" : 8,
            "componentType" : 5126,
            "count" : 490,
            "max" : [
                0.31517794728279114,
                0.13238635659217834,
                0.912536084651947
            ],
            "min" : [
                -0.31517794728279114,
                -0.04042660444974899,
                -0.912536084651947
            ],
            "type" : "VEC3"
        },
        {
            "bufferView" : 9,
            "componentType" : 5126,
            "count" : 490,
            "type" : "VEC2"
        },
        {
            "bufferView" : 10,
            "componentType" : 5126,
            "count" : 490,
            "type" : "VEC3"
        },
        {
            "bufferView" : 11,
            "componentType" : 5123,
            "count" : 1440,
            "type" : "SCALAR"
        }
    ],
    "bufferViews" : [
        {
            "buffer" : 0,
            "byteLength" : 4524,
            "byteOffset" : 0,
            "target" : 34962
        },
        {
            "buffer" : 0,
            "byteLength" : 3016,
            "byteOffset" : 4524,
            "target" : 34962
        },
        {
            "buffer" : 0,
            "byteLength" : 4524,
            "byteOffset" : 7540,
            "target" : 34962
        },
        {
            "buffer" : 0,
            "byteLength" : 2112,
            "byteOffset" : 12064,
            "target" : 34963
        },
        {
            "buffer" : 0,
            "byteLength" : 4524,
            "byteOffset" : 14176,
            "target" : 34962
        },
        {
            "buffer" : 0,
            "byteLength" : 3016,
            "byteOffset" : 18700,
            "target" : 34962
        },
        {
            "buffer" : 0,
            "byteLength" : 4524,
            "byteOffset" : 21716,
            "target" : 34962
        },
        {
            "buffer" : 0,
            "byteLength" : 2112,
            "byteOffset" : 26240,
            "target" : 34963
        },
        {
            "buffer" : 0,
            "byteLength" : 5880,
            "byteOffset" : 28352,
            "target" : 34962
        },
        {
            "buffer" : 0,
            "byteLength" : 3920,
            "byteOffset" : 34232,
            "target" : 34962
        },
        {
            "buffer" : 0,
            "byteLength" : 5880,
            "byteOffset" : 38152,
            "target" : 34962
        },
        {
            "buffer" : 0,
            "byteLength" : 2880,
            "byteOffset" : 44032,
            "target" : 34963
        }
    ],
    "samplers" : [
        {
            "magFilter" : 9729,
            "minFilter" : 9987
        }
    ],
    "buffers" : [
        {
            "byteLength" : 46912,
            "uri" : "skateboard_A.bin"
        }
    ]
}
